<?xml version="1.0" encoding="UTF-8" standalone="no"?>
<!DOCTYPE svg PUBLIC "-//W3C//DTD SVG 1.1//EN"
 "http://www.w3.org/Graphics/SVG/1.1/DTD/svg11.dtd">
<!-- Generated by graphviz version 14.1.1 (20251213.1925)
 -->
<!-- Title: src/driver_apds9960.h Pages: 1 -->
<svg width="1070pt" height="232pt"
 viewBox="0.00 0.00 1070.00 232.00" xmlns="http://www.w3.org/2000/svg" xmlns:xlink="http://www.w3.org/1999/xlink">
<g id="graph0" class="graph" transform="scale(1 1) rotate(0) translate(4 228)">
<title>src/driver_apds9960.h</title>
<!-- Node1 -->
<g id="Node000001" class="node">
<title>Node1</title>
<g id="a_Node000001"><a xlink:title="driver apds9960 header file">
<polygon fill="#999999" stroke="#666666" points="690.5,-224 578.5,-224 578.5,-204 690.5,-204 690.5,-224"/>
<text xml:space="preserve" text-anchor="middle" x="634.5" y="-210.5" font-family="Helvetica,sans-Serif" font-size="10.00">src/driver_apds9960.h</text>
</a>
</g>
</g>
<!-- Node2 -->
<g id="Node000002" class="node">
<title>Node2</title>
<g id="a_Node000002"><a xlink:href="driver__apds9960__interface_8h.html" target="_top" xlink:title="driver apds9960 interface header file">
<polygon fill="white" stroke="#666666" points="629.38,-168 501.62,-168 501.62,-136 629.38,-136 629.38,-168"/>
<text xml:space="preserve" text-anchor="start" x="509.62" y="-154.5" font-family="Helvetica,sans-Serif" font-size="10.00">interface/driver_apds9960</text>
<text xml:space="preserve" text-anchor="middle" x="565.5" y="-142.5" font-family="Helvetica,sans-Serif" font-size="10.00">_interface.h</text>
</a>
</g>
</g>
<!-- Node1&#45;&gt;Node2 -->
<g id="edge1_Node000001_Node000002" class="edge">
<title>Node1&#45;&gt;Node2</title>
<g id="a_edge1_Node000001_Node000002"><a xlink:title=" ">
<path fill="none" stroke="#63b8ff" d="M615.23,-196.24C605.18,-187.51 592.98,-176.9 583.18,-168.37"/>
<polygon fill="#63b8ff" stroke="#63b8ff" points="612.73,-198.71 622.58,-202.63 617.33,-193.43 612.73,-198.71"/>
</a>
</g>
</g>
<!-- Node18 -->
<g id="Node000018" class="node">
<title>Node18</title>
<g id="a_Node000018"><a xlink:href="driver__apds9960_8c.html" target="_top" xlink:title="driver apds9960 source file">
<polygon fill="white" stroke="#666666" points="759.5,-162 647.5,-162 647.5,-142 759.5,-142 759.5,-162"/>
<text xml:space="preserve" text-anchor="middle" x="703.5" y="-148.5" font-family="Helvetica,sans-Serif" font-size="10.00">src/driver_apds9960.c</text>
</a>
</g>
</g>
<!-- Node1&#45;&gt;Node18 -->
<g id="edge17_Node000001_Node000018" class="edge">
<title>Node1&#45;&gt;Node18</title>
<g id="a_edge17_Node000001_Node000018"><a xlink:title=" ">
<path fill="none" stroke="#63b8ff" d="M653.79,-196.22C666.5,-185.18 682.64,-171.14 693.02,-162.11"/>
<polygon fill="#63b8ff" stroke="#63b8ff" points="651.67,-193.43 646.42,-202.63 656.27,-198.71 651.67,-193.43"/>
</a>
</g>
</g>
<!-- Node3 -->
<g id="Node000003" class="node">
<title>Node3</title>
<g id="a_Node000003"><a xlink:href="driver__apds9960__basic_8h.html" target="_top" xlink:title="driver apds9960 basic header file">
<polygon fill="white" stroke="#666666" points="127,-100 0,-100 0,-68 127,-68 127,-100"/>
<text xml:space="preserve" text-anchor="start" x="8" y="-86.5" font-family="Helvetica,sans-Serif" font-size="10.00">example/driver_apds9960</text>
<text xml:space="preserve" text-anchor="middle" x="63.5" y="-74.5" font-family="Helvetica,sans-Serif" font-size="10.00">_basic.h</text>
</a>
</g>
</g>
<!-- Node2&#45;&gt;Node3 -->
<g id="edge2_Node000002_Node000003" class="edge">
<title>Node2&#45;&gt;Node3</title>
<g id="a_edge2_Node000002_Node000003"><a xlink:title=" ">
<path fill="none" stroke="#63b8ff" d="M489.91,-144.05C403.81,-135.67 259.05,-120.16 135.5,-100 132.85,-99.57 130.16,-99.11 127.44,-98.62"/>
<polygon fill="#63b8ff" stroke="#63b8ff" points="489.35,-147.51 499.64,-144.99 490.02,-140.55 489.35,-147.51"/>
</a>
</g>
</g>
<!-- Node5 -->
<g id="Node000005" class="node">
<title>Node5</title>
<g id="a_Node000005"><a xlink:href="driver__apds9960__gesture_8h.html" target="_top" xlink:title="driver apds9960 gesture header file">
<polygon fill="white" stroke="#666666" points="272,-100 145,-100 145,-68 272,-68 272,-100"/>
<text xml:space="preserve" text-anchor="start" x="153" y="-86.5" font-family="Helvetica,sans-Serif" font-size="10.00">example/driver_apds9960</text>
<text xml:space="preserve" text-anchor="middle" x="208.5" y="-74.5" font-family="Helvetica,sans-Serif" font-size="10.00">_gesture.h</text>
</a>
</g>
</g>
<!-- Node2&#45;&gt;Node5 -->
<g id="edge4_Node000002_Node000005" class="edge">
<title>Node2&#45;&gt;Node5</title>
<g id="a_edge4_Node000002_Node000005"><a xlink:title=" ">
<path fill="none" stroke="#63b8ff" d="M490.27,-138.02C432.97,-128 352.17,-113.6 281.5,-100 278.45,-99.41 275.33,-98.8 272.18,-98.18"/>
<polygon fill="#63b8ff" stroke="#63b8ff" points="489.46,-141.43 499.91,-139.7 490.66,-134.53 489.46,-141.43"/>
</a>
</g>
</g>
<!-- Node7 -->
<g id="Node000007" class="node">
<title>Node7</title>
<g id="a_Node000007"><a xlink:href="driver__apds9960__interrupt_8h.html" target="_top" xlink:title="driver apds9960 interrupt header file">
<polygon fill="white" stroke="#666666" points="417,-100 290,-100 290,-68 417,-68 417,-100"/>
<text xml:space="preserve" text-anchor="start" x="298" y="-86.5" font-family="Helvetica,sans-Serif" font-size="10.00">example/driver_apds9960</text>
<text xml:space="preserve" text-anchor="middle" x="353.5" y="-74.5" font-family="Helvetica,sans-Serif" font-size="10.00">_interrupt.h</text>
</a>
</g>
</g>
<!-- Node2&#45;&gt;Node7 -->
<g id="edge6_Node000002_Node000007" class="edge">
<title>Node2&#45;&gt;Node7</title>
<g id="a_edge6_Node000002_Node000007"><a xlink:title=" ">
<path fill="none" stroke="#63b8ff" d="M505.15,-132.21C472.92,-122.18 433.73,-109.98 403.26,-100.49"/>
<polygon fill="#63b8ff" stroke="#63b8ff" points="503.76,-135.45 514.35,-135.08 505.84,-128.76 503.76,-135.45"/>
</a>
</g>
</g>
<!-- Node9 -->
<g id="Node000009" class="node">
<title>Node9</title>
<g id="a_Node000009"><a xlink:href="driver__apds9960__interface__template_8c.html" target="_top" xlink:title="driver apds9960 interface template source file">
<polygon fill="white" stroke="#666666" points="562.38,-100 434.62,-100 434.62,-68 562.38,-68 562.38,-100"/>
<text xml:space="preserve" text-anchor="start" x="442.62" y="-86.5" font-family="Helvetica,sans-Serif" font-size="10.00">interface/driver_apds9960</text>
<text xml:space="preserve" text-anchor="middle" x="498.5" y="-74.5" font-family="Helvetica,sans-Serif" font-size="10.00">_interface_template.c</text>
</a>
</g>
</g>
<!-- Node2&#45;&gt;Node9 -->
<g id="edge8_Node000002_Node000009" class="edge">
<title>Node2&#45;&gt;Node9</title>
<g id="a_edge8_Node000002_Node000009"><a xlink:title=" ">
<path fill="none" stroke="#63b8ff" d="M541.86,-127.71C532.59,-118.59 522.23,-108.37 513.96,-100.22"/>
<polygon fill="#63b8ff" stroke="#63b8ff" points="539.3,-130.11 548.88,-134.63 544.21,-125.12 539.3,-130.11"/>
</a>
</g>
</g>
<!-- Node10 -->
<g id="Node000010" class="node">
<title>Node10</title>
<g id="a_Node000010"><a xlink:href="driver__apds9960__gesture__test_8h.html" target="_top" xlink:title="driver apds9960 gesture test header file">
<polygon fill="white" stroke="#666666" points="686.88,-100 580.12,-100 580.12,-68 686.88,-68 686.88,-100"/>
<text xml:space="preserve" text-anchor="start" x="588.12" y="-86.5" font-family="Helvetica,sans-Serif" font-size="10.00">test/driver_apds9960</text>
<text xml:space="preserve" text-anchor="middle" x="633.5" y="-74.5" font-family="Helvetica,sans-Serif" font-size="10.00">_gesture_test.h</text>
</a>
</g>
</g>
<!-- Node2&#45;&gt;Node10 -->
<g id="edge9_Node000002_Node000010" class="edge">
<title>Node2&#45;&gt;Node10</title>
<g id="a_edge9_Node000002_Node000010"><a xlink:title=" ">
<path fill="none" stroke="#63b8ff" d="M589.5,-127.71C598.9,-118.59 609.42,-108.37 617.81,-100.22"/>
<polygon fill="#63b8ff" stroke="#63b8ff" points="587.1,-125.16 582.36,-134.64 591.97,-130.18 587.1,-125.16"/>
</a>
</g>
</g>
<!-- Node12 -->
<g id="Node000012" class="node">
<title>Node12</title>
<g id="a_Node000012"><a xlink:href="driver__apds9960__interrupt__test_8h.html" target="_top" xlink:title="driver apds9960 interrupt test header file">
<polygon fill="white" stroke="#666666" points="811.88,-100 705.12,-100 705.12,-68 811.88,-68 811.88,-100"/>
<text xml:space="preserve" text-anchor="start" x="713.12" y="-86.5" font-family="Helvetica,sans-Serif" font-size="10.00">test/driver_apds9960</text>
<text xml:space="preserve" text-anchor="middle" x="758.5" y="-74.5" font-family="Helvetica,sans-Serif" font-size="10.00">_interrupt_test.h</text>
</a>
</g>
</g>
<!-- Node2&#45;&gt;Node12 -->
<g id="edge11_Node000002_Node000012" class="edge">
<title>Node2&#45;&gt;Node12</title>
<g id="a_edge11_Node000002_Node000012"><a xlink:title=" ">
<path fill="none" stroke="#63b8ff" d="M621.59,-131.82C650.71,-121.86 685.82,-109.85 713.2,-100.49"/>
<polygon fill="#63b8ff" stroke="#63b8ff" points="620.51,-128.49 612.18,-135.04 622.78,-135.11 620.51,-128.49"/>
</a>
</g>
</g>
<!-- Node14 -->
<g id="Node000014" class="node">
<title>Node14</title>
<g id="a_Node000014"><a xlink:href="driver__apds9960__read__test_8h.html" target="_top" xlink:title="driver apds9960 read test header file">
<polygon fill="white" stroke="#666666" points="936.88,-100 830.12,-100 830.12,-68 936.88,-68 936.88,-100"/>
<text xml:space="preserve" text-anchor="start" x="838.12" y="-86.5" font-family="Helvetica,sans-Serif" font-size="10.00">test/driver_apds9960</text>
<text xml:space="preserve" text-anchor="middle" x="883.5" y="-74.5" font-family="Helvetica,sans-Serif" font-size="10.00">_read_test.h</text>
</a>
</g>
</g>
<!-- Node2&#45;&gt;Node14 -->
<g id="edge13_Node000002_Node000014" class="edge">
<title>Node2&#45;&gt;Node14</title>
<g id="a_edge13_Node000002_Node000014"><a xlink:title=" ">
<path fill="none" stroke="#63b8ff" d="M640.78,-135.56C721.21,-119.49 743.4,-116.8 820.5,-100 823.58,-99.33 826.73,-98.63 829.92,-97.91"/>
<polygon fill="#63b8ff" stroke="#63b8ff" points="640.19,-132.11 631.07,-137.51 641.57,-138.97 640.19,-132.11"/>
</a>
</g>
</g>
<!-- Node16 -->
<g id="Node000016" class="node">
<title>Node16</title>
<g id="a_Node000016"><a xlink:href="driver__apds9960__register__test_8h.html" target="_top" xlink:title="driver apds9960 register test header file">
<polygon fill="white" stroke="#666666" points="1061.88,-100 955.12,-100 955.12,-68 1061.88,-68 1061.88,-100"/>
<text xml:space="preserve" text-anchor="start" x="963.12" y="-86.5" font-family="Helvetica,sans-Serif" font-size="10.00">test/driver_apds9960</text>
<text xml:space="preserve" text-anchor="middle" x="1008.5" y="-74.5" font-family="Helvetica,sans-Serif" font-size="10.00">_register_test.h</text>
</a>
</g>
</g>
<!-- Node2&#45;&gt;Node16 -->
<g id="edge15_Node000002_Node000016" class="edge">
<title>Node2&#45;&gt;Node16</title>
<g id="a_edge15_Node000002_Node000016"><a xlink:title=" ">
<path fill="none" stroke="#63b8ff" d="M640.75,-135.74C776.1,-114.65 813.79,-123.32 945.5,-100 948.49,-99.47 951.55,-98.89 954.63,-98.26"/>
<polygon fill="#63b8ff" stroke="#63b8ff" points="640.36,-132.26 631.03,-137.28 641.46,-139.17 640.36,-132.26"/>
</a>
</g>
</g>
<!-- Node4 -->
<g id="Node000004" class="node">
<title>Node4</title>
<g id="a_Node000004"><a xlink:href="driver__apds9960__basic_8c.html" target="_top" xlink:title="driver apds9960 basic source file">
<polygon fill="white" stroke="#666666" points="127,-32 0,-32 0,0 127,0 127,-32"/>
<text xml:space="preserve" text-anchor="start" x="8" y="-18.5" font-family="Helvetica,sans-Serif" font-size="10.00">example/driver_apds9960</text>
<text xml:space="preserve" text-anchor="middle" x="63.5" y="-6.5" font-family="Helvetica,sans-Serif" font-size="10.00">_basic.c</text>
</a>
</g>
</g>
<!-- Node3&#45;&gt;Node4 -->
<g id="edge3_Node000003_Node000004" class="edge">
<title>Node3&#45;&gt;Node4</title>
<g id="a_edge3_Node000003_Node000004"><a xlink:title=" ">
<path fill="none" stroke="#63b8ff" d="M63.5,-56.31C63.5,-48.12 63.5,-39.38 63.5,-32.22"/>
<polygon fill="#63b8ff" stroke="#63b8ff" points="60,-56.18 63.5,-66.18 67,-56.18 60,-56.18"/>
</a>
</g>
</g>
<!-- Node6 -->
<g id="Node000006" class="node">
<title>Node6</title>
<g id="a_Node000006"><a xlink:href="driver__apds9960__gesture_8c.html" target="_top" xlink:title="driver apds9960 gesture source file">
<polygon fill="white" stroke="#666666" points="272,-32 145,-32 145,0 272,0 272,-32"/>
<text xml:space="preserve" text-anchor="start" x="153" y="-18.5" font-family="Helvetica,sans-Serif" font-size="10.00">example/driver_apds9960</text>
<text xml:space="preserve" text-anchor="middle" x="208.5" y="-6.5" font-family="Helvetica,sans-Serif" font-size="10.00">_gesture.c</text>
</a>
</g>
</g>
<!-- Node5&#45;&gt;Node6 -->
<g id="edge5_Node000005_Node000006" class="edge">
<title>Node5&#45;&gt;Node6</title>
<g id="a_edge5_Node000005_Node000006"><a xlink:title=" ">
<path fill="none" stroke="#63b8ff" d="M208.5,-56.31C208.5,-48.12 208.5,-39.38 208.5,-32.22"/>
<polygon fill="#63b8ff" stroke="#63b8ff" points="205,-56.18 208.5,-66.18 212,-56.18 205,-56.18"/>
</a>
</g>
</g>
<!-- Node8 -->
<g id="Node000008" class="node">
<title>Node8</title>
<g id="a_Node000008"><a xlink:href="driver__apds9960__interrupt_8c.html" target="_top" xlink:title="driver apds9960 interrupt source file">
<polygon fill="white" stroke="#666666" points="417,-32 290,-32 290,0 417,0 417,-32"/>
<text xml:space="preserve" text-anchor="start" x="298" y="-18.5" font-family="Helvetica,sans-Serif" font-size="10.00">example/driver_apds9960</text>
<text xml:space="preserve" text-anchor="middle" x="353.5" y="-6.5" font-family="Helvetica,sans-Serif" font-size="10.00">_interrupt.c</text>
</a>
</g>
</g>
<!-- Node7&#45;&gt;Node8 -->
<g id="edge7_Node000007_Node000008" class="edge">
<title>Node7&#45;&gt;Node8</title>
<g id="a_edge7_Node000007_Node000008"><a xlink:title=" ">
<path fill="none" stroke="#63b8ff" d="M353.5,-56.31C353.5,-48.12 353.5,-39.38 353.5,-32.22"/>
<polygon fill="#63b8ff" stroke="#63b8ff" points="350,-56.18 353.5,-66.18 357,-56.18 350,-56.18"/>
</a>
</g>
</g>
<!-- Node11 -->
<g id="Node000011" class="node">
<title>Node11</title>
<g id="a_Node000011"><a xlink:href="driver__apds9960__gesture__test_8c.html" target="_top" xlink:title="driver apds9960 gesture test source file">
<polygon fill="white" stroke="#666666" points="686.88,-32 580.12,-32 580.12,0 686.88,0 686.88,-32"/>
<text xml:space="preserve" text-anchor="start" x="588.12" y="-18.5" font-family="Helvetica,sans-Serif" font-size="10.00">test/driver_apds9960</text>
<text xml:space="preserve" text-anchor="middle" x="633.5" y="-6.5" font-family="Helvetica,sans-Serif" font-size="10.00">_gesture_test.c</text>
</a>
</g>
</g>
<!-- Node10&#45;&gt;Node11 -->
<g id="edge10_Node000010_Node000011" class="edge">
<title>Node10&#45;&gt;Node11</title>
<g id="a_edge10_Node000010_Node000011"><a xlink:title=" ">
<path fill="none" stroke="#63b8ff" d="M633.5,-56.31C633.5,-48.12 633.5,-39.38 633.5,-32.22"/>
<polygon fill="#63b8ff" stroke="#63b8ff" points="630,-56.18 633.5,-66.18 637,-56.18 630,-56.18"/>
</a>
</g>
</g>
<!-- Node13 -->
<g id="Node000013" class="node">
<title>Node13</title>
<g id="a_Node000013"><a xlink:href="driver__apds9960__interrupt__test_8c.html" target="_top" xlink:title="driver apds9960 interrupt test source file">
<polygon fill="white" stroke="#666666" points="811.88,-32 705.12,-32 705.12,0 811.88,0 811.88,-32"/>
<text xml:space="preserve" text-anchor="start" x="713.12" y="-18.5" font-family="Helvetica,sans-Serif" font-size="10.00">test/driver_apds9960</text>
<text xml:space="preserve" text-anchor="middle" x="758.5" y="-6.5" font-family="Helvetica,sans-Serif" font-size="10.00">_interrupt_test.c</text>
</a>
</g>
</g>
<!-- Node12&#45;&gt;Node13 -->
<g id="edge12_Node000012_Node000013" class="edge">
<title>Node12&#45;&gt;Node13</title>
<g id="a_edge12_Node000012_Node000013"><a xlink:title=" ">
<path fill="none" stroke="#63b8ff" d="M758.5,-56.31C758.5,-48.12 758.5,-39.38 758.5,-32.22"/>
<polygon fill="#63b8ff" stroke="#63b8ff" points="755,-56.18 758.5,-66.18 762,-56.18 755,-56.18"/>
</a>
</g>
</g>
<!-- Node15 -->
<g id="Node000015" class="node">
<title>Node15</title>
<g id="a_Node000015"><a xlink:href="driver__apds9960__read__test_8c.html" target="_top" xlink:title="driver apds9960 read test source file">
<polygon fill="white" stroke="#666666" points="936.88,-32 830.12,-32 830.12,0 936.88,0 936.88,-32"/>
<text xml:space="preserve" text-anchor="start" x="838.12" y="-18.5" font-family="Helvetica,sans-Serif" font-size="10.00">test/driver_apds9960</text>
<text xml:space="preserve" text-anchor="middle" x="883.5" y="-6.5" font-family="Helvetica,sans-Serif" font-size="10.00">_read_test.c</text>
</a>
</g>
</g>
<!-- Node14&#45;&gt;Node15 -->
<g id="edge14_Node000014_Node000015" class="edge">
<title>Node14&#45;&gt;Node15</title>
<g id="a_edge14_Node000014_Node000015"><a xlink:title=" ">
<path fill="none" stroke="#63b8ff" d="M883.5,-56.31C883.5,-48.12 883.5,-39.38 883.5,-32.22"/>
<polygon fill="#63b8ff" stroke="#63b8ff" points="880,-56.18 883.5,-66.18 887,-56.18 880,-56.18"/>
</a>
</g>
</g>
<!-- Node17 -->
<g id="Node000017" class="node">
<title>Node17</title>
<g id="a_Node000017"><a xlink:href="driver__apds9960__register__test_8c.html" target="_top" xlink:title="driver apds9960 register test source file">
<polygon fill="white" stroke="#666666" points="1061.88,-32 955.12,-32 955.12,0 1061.88,0 1061.88,-32"/>
<text xml:space="preserve" text-anchor="start" x="963.12" y="-18.5" font-family="Helvetica,sans-Serif" font-size="10.00">test/driver_apds9960</text>
<text xml:space="preserve" text-anchor="middle" x="1008.5" y="-6.5" font-family="Helvetica,sans-Serif" font-size="10.00">_register_test.c</text>
</a>
</g>
</g>
<!-- Node16&#45;&gt;Node17 -->
<g id="edge16_Node000016_Node000017" class="edge">
<title>Node16&#45;&gt;Node17</title>
<g id="a_edge16_Node000016_Node000017"><a xlink:title=" ">
<path fill="none" stroke="#63b8ff" d="M1008.5,-56.31C1008.5,-48.12 1008.5,-39.38 1008.5,-32.22"/>
<polygon fill="#63b8ff" stroke="#63b8ff" points="1005,-56.18 1008.5,-66.18 1012,-56.18 1005,-56.18"/>
</a>
</g>
</g>
</g>
</svg>
